<svg width="20" height="21" viewBox="0 0 20 21" fill="none" xmlns="http://www.w3.org/2000/svg">
<path d="M19.6875 10.395C19.6875 5.08252 15.3125 0.70752 10 0.70752C4.64844 0.70752 0.3125 5.08252 0.3125 10.395C0.3125 15.7466 4.64844 20.0825 10 20.0825C15.3125 20.0825 19.6875 15.7466 19.6875 10.395ZM8.86719 15.5513C8.63281 15.7856 8.20312 15.7856 7.96875 15.5513L3.90625 11.4888C3.67188 11.2544 3.67188 10.8247 3.90625 10.5903L4.80469 9.73096C5.03906 9.45752 5.42969 9.45752 5.66406 9.73096L8.4375 12.4653L14.2969 6.60596C14.5312 6.33252 14.9219 6.33252 15.1562 6.60596L16.0547 7.46533C16.2891 7.69971 16.2891 8.12939 16.0547 8.36377L8.86719 15.5513Z" fill="white"/>
</svg>
