<svg  viewBox="0 0 20 21" fill="none" xmlns="http://www.w3.org/2000/svg">
<path d="M19.6875 10.5659C19.6875 5.25336 15.3125 0.878357 10 0.878357C4.64844 0.878357 0.3125 5.25336 0.3125 10.5659C0.3125 15.9174 4.64844 20.2534 10 20.2534C15.3125 20.2534 19.6875 15.9174 19.6875 10.5659ZM8.86719 15.7221C8.63281 15.9565 8.20312 15.9565 7.96875 15.7221L3.90625 11.6596C3.67188 11.4252 3.67188 10.9955 3.90625 10.7612L4.80469 9.90179C5.03906 9.62836 5.42969 9.62836 5.66406 9.90179L8.4375 12.6362L14.2969 6.77679C14.5312 6.50336 14.9219 6.50336 15.1562 6.77679L16.0547 7.63617C16.2891 7.87054 16.2891 8.30023 16.0547 8.53461L8.86719 15.7221Z" fill="#757575"/>
</svg>
