<svg  viewBox="0 0 23 23" fill="none" xmlns="http://www.w3.org/2000/svg">
<path fill-rule="evenodd" clip-rule="evenodd" d="M14.6316 4.57538C17.3653 7.30905 17.3653 11.7412 14.6316 14.4749C11.898 17.2085 7.46581 17.2085 4.73214 14.4749C1.99847 11.7412 1.99847 7.30905 4.73214 4.57538C7.46581 1.84171 11.898 1.84171 14.6316 4.57538ZM16.3902 15.5254C19.5566 11.9916 19.4418 6.55709 16.0458 3.16117C12.5311 -0.353549 6.83264 -0.353549 3.31792 3.16117C-0.196795 6.67589 -0.196795 12.3744 3.31792 15.8891C6.61488 19.186 11.8334 19.3903 15.3684 16.5019C15.3624 16.7655 15.4599 17.0311 15.6611 17.2322L20.6108 22.182C21.0013 22.5725 21.6345 22.5725 22.025 22.182C22.4156 21.7915 22.4156 21.1583 22.025 20.7678L17.0753 15.818C16.8856 15.6284 16.6387 15.5308 16.3902 15.5254Z" fill="white"/>
</svg>
