<svg viewBox="0 0 40 42" fill="none" xmlns="http://www.w3.org/2000/svg">
<path fill-rule="evenodd" clip-rule="evenodd" d="M19.8387 0.689453C8.9015 0.689453 0.0351562 9.5558 0.0351562 20.493V21.2677C0.0351562 32.2049 8.9015 41.0713 19.8387 41.0713C30.7759 41.0713 39.6422 32.2049 39.6422 21.2677V20.493C39.6422 9.5558 30.7759 0.689453 19.8387 0.689453ZM25.32 24.5759V20.6019C25.32 20.0594 25.0997 19.5403 24.7096 19.1634L21.0082 15.5879C20.2331 14.8391 19.0042 14.8391 18.2291 15.5879L14.5277 19.1634C14.1376 19.5403 13.9173 20.0594 13.9173 20.6019V24.5759C13.9173 25.6804 14.8127 26.5759 15.9173 26.5759H16.7327C16.6068 26.2397 16.5379 25.8756 16.5379 25.4954V24.0961C16.5379 23.2024 16.926 22.3528 17.6015 21.7676C18.7592 20.7648 20.4778 20.7648 21.6355 21.7676C22.311 22.3528 22.699 23.2024 22.699 24.0961V25.4954C22.699 25.8756 22.6302 26.2397 22.5043 26.5759H23.32C24.4246 26.5759 25.32 25.6804 25.32 24.5759ZM19.6029 26.5759H19.6341C20.2237 26.5675 20.699 26.087 20.699 25.4954V24.0961C20.699 23.7826 20.5629 23.4846 20.326 23.2793C19.9199 22.9276 19.3171 22.9276 18.911 23.2793C18.6741 23.4846 18.5379 23.7826 18.5379 24.0961V25.4954C18.5379 26.087 19.0133 26.5675 19.6029 26.5759ZM15.9173 28.5759H19.5923L19.6185 28.576L19.6447 28.5759H23.32C25.5292 28.5759 27.32 26.785 27.32 24.5759V20.6019C27.32 19.517 26.8794 18.4787 26.0991 17.725L22.3978 14.1494C20.8476 12.6519 18.3897 12.6519 16.8395 14.1494L13.1382 17.725C12.3579 18.4787 11.9173 19.517 11.9173 20.6019V24.5759C11.9173 26.785 13.7081 28.5759 15.9173 28.5759Z" fill="#87CEEB"/>
</svg>
